<?xml version="1.0" standalone="no"?><!DOCTYPE svg PUBLIC "-//W3C//DTD SVG 1.1//EN" "http://www.w3.org/Graphics/SVG/1.1/DTD/svg11.dtd"><svg t="1622551105811" class="icon" viewBox="0 0 1024 1024" version="1.1" xmlns="http://www.w3.org/2000/svg" p-id="19813" xmlns:xlink="http://www.w3.org/1999/xlink" width="100" height="100"><defs><style type="text/css"></style></defs><path d="M4.143262 2.378831h1008.246153v1008.246154h-1008.246153z" fill="#000000" opacity=".01" p-id="19814"></path><path d="M535.630769 78.769231a94.523077 94.523077 0 0 1 88.946216 126.582154l226.9184 209.368615a94.523077 94.523077 0 1 1-24.418462 166.203077L631.934031 769.701415A94.523077 94.523077 0 1 1 459.067077 839.68H249.856A94.523077 94.523077 0 1 1 137.058462 726.898215l-0.015754-128.393846a94.523077 94.523077 0 1 1 46.395077-179.263015l264.412553-210.786462A94.523077 94.523077 0 0 1 535.630769 78.769231z m253.054031 439.154215l-175.560862 1.811692a94.554585 94.554585 0 0 1-186.147446 1.906216l-192.685292 2.000738a94.696369 94.696369 0 0 1-56.256985 67.804554v135.451569a94.649108 94.649108 0 0 1 71.806031 71.821785H459.067077a94.554585 94.554585 0 0 1 144.336738-58.446769l196.292923-189.959877a93.892923 93.892923 0 0 1-11.027692-32.389908zM602.190769 240.403692A94.208 94.208 0 0 1 535.630769 267.815385a94.192246 94.192246 0 0 1-64.559261-25.489723L216.048246 445.6448c8.459815 10.712615 14.635323 23.315692 17.8176 37.037292l194.418216-2.016492a94.570338 94.570338 0 0 1 182.6816-1.890462l180.696615-1.874707a94.475815 94.475815 0 0 1 23.804061-39.699693z" fill="#A8ADBB" p-id="19815"></path></svg>