<?xml version="1.0" standalone="no"?><!DOCTYPE svg PUBLIC "-//W3C//DTD SVG 1.1//EN" "http://www.w3.org/Graphics/SVG/1.1/DTD/svg11.dtd"><svg t="1622551543004" class="icon" viewBox="0 0 1024 1024" version="1.1" xmlns="http://www.w3.org/2000/svg" p-id="20110" xmlns:xlink="http://www.w3.org/1999/xlink" width="100" height="100"><defs><style type="text/css"></style></defs><path d="M592 473.6h-12.8l-33.6 41.6 1.6 1.6c3.2 3.2 4.8 8 6.4 12.8l46.4-57.6c-3.2 0-6.4 1.6-8 1.6zM505.6 467.2c-3.2-1.6-6.4-1.6-11.2-3.2 16 14.4 33.6 32 49.6 51.2-1.6-4.8-3.2-8-6.4-11.2-9.6-14.4-20.8-25.6-32-36.8zM86.4 518.4c32-38.4 115.2-123.2 224-128 19.2-1.6 40 1.6 62.4 6.4-6.4-4.8-12.8-11.2-19.2-16-17.6-4.8-33.6-6.4-49.6-4.8-108.8 4.8-192 89.6-224 128-8 9.6-8 25.6 1.6 35.2-1.6-6.4 0-14.4 4.8-20.8z" fill="#588789" p-id="20111"></path><path d="M600 472l-46.4 57.6-4.8 6.4 4.8 4.8 32 32c17.6 3.2 36.8 11.2 56 19.2v-128c-12.8 4.8-27.2 6.4-41.6 8z" fill="#53A5B5" p-id="20112"></path><path d="M502.4 572.8c8-1.6 16-1.6 24-3.2 6.4-6.4 12.8-11.2 19.2-16 4.8-3.2 6.4-8 8-12.8l-4.8-4.8 4.8-6.4c0-4.8-3.2-9.6-6.4-12.8l-1.6-1.6C529.6 496 512 478.4 496 464c-40-11.2-81.6-32-123.2-67.2-20.8-4.8-41.6-6.4-62.4-6.4 3.2 6.4 60.8 153.6 19.2 265.6 3.2 0 4.8 0 8-1.6 43.2-36.8 100.8-72 164.8-81.6z" fill="#67B5BF" p-id="20113"></path><path d="M312 390.4c-108.8 4.8-192 89.6-224 128-4.8 6.4-6.4 14.4-4.8 22.4 1.6 4.8 3.2 9.6 8 14.4 83.2 84.8 168 107.2 241.6 100.8 38.4-112-19.2-259.2-20.8-265.6z m-110.4 132.8c0-17.6 14.4-32 32-32s32 14.4 32 32-14.4 32-32 32-32-14.4-32-32z" fill="#669DA3" p-id="20114"></path><path d="M233.6 555.2c17.6 0 32-14.4 32-32s-14.4-32-32-32-32 14.4-32 32 14.4 32 32 32z" fill="#FFFFFF" p-id="20115"></path><path d="M918.4 243.2c0-1.6 1.6-1.6 3.2-1.6v-8c0-4.8-6.4-6.4-9.6-3.2l-86.4 108.8 9.6 9.6 83.2-105.6zM340.8 332.8c33.6-40 118.4-128 230.4-132.8 75.2-3.2 161.6 30.4 251.2 140.8l1.6-1.6c-92.8-118.4-182.4-153.6-260.8-150.4-108.8 3.2-195.2 92.8-228.8 131.2-8 9.6-8 25.6 1.6 35.2-1.6-8 0-16 4.8-22.4z" fill="#626D56" p-id="20116"></path><path d="M918.4 243.2l-83.2 105.6-3.2 3.2 83.2 84.8c4.8 4.8 11.2 1.6 11.2-4.8V246.4c0-3.2-3.2-6.4-6.4-4.8 0 0-1.6 0-1.6 1.6z" fill="#6B7263" p-id="20117"></path><path d="M572.8 200s62.4 155.2 19.2 272c3.2 0 6.4 0 8-1.6 14.4-1.6 28.8-3.2 41.6-8C753.6 435.2 832 352 832 352c-3.2-3.2-6.4-6.4-8-11.2-91.2-110.4-177.6-144-251.2-140.8z" fill="#7F847A" p-id="20118"></path><path d="M496 464c3.2 1.6 6.4 1.6 11.2 3.2 25.6 6.4 49.6 8 73.6 6.4h12.8c43.2-116.8-19.2-272-19.2-272-112 4.8-198.4 92.8-230.4 132.8-4.8 6.4-6.4 14.4-4.8 22.4 1.6 4.8 3.2 9.6 8 14.4l11.2 11.2c6.4 6.4 12.8 11.2 19.2 16 36.8 33.6 78.4 54.4 118.4 65.6z m-3.2-94.4c-17.6 0-33.6-14.4-33.6-33.6s14.4-33.6 33.6-33.6c17.6 0 33.6 14.4 33.6 33.6s-16 33.6-33.6 33.6z" fill="#9FAA8F" p-id="20119"></path><path d="M492.8 337.6m-33.6 0a33.6 33.6 0 1 0 67.2 0 33.6 33.6 0 1 0-67.2 0Z" fill="#FFFFFF" p-id="20120"></path><path d="M944 691.2c-1.6-12.8-3.2-25.6-4.8-35.2 0-1.6 0-1.6-1.6-3.2 0 1.6 1.6 1.6 1.6 3.2 1.6 8 3.2 20.8 4.8 35.2zM801.6 745.6c3.2 0 9.6-3.2 17.6-8h0c-8 6.4-14.4 6.4-19.2 4.8-3.2-1.6-4.8-3.2-8-4.8 1.6 3.2 3.2 8 9.6 8zM505.6 593.6c81.6-16 172.8 6.4 262.4 113.6-41.6-56-84.8-91.2-126.4-112-19.2-9.6-36.8-16-56-19.2-19.2-4.8-40-4.8-59.2-4.8-8 0-16 1.6-24 3.2-64 9.6-121.6 46.4-164.8 81.6-30.4 25.6-54.4 49.6-68.8 67.2-8 9.6-9.6 22.4-3.2 33.6 1.6-4.8 3.2-8 6.4-12.8 35.2-41.6 124.8-129.6 233.6-150.4z" fill="#BC8E68" p-id="20121"></path><path d="M944 691.2c-1.6-14.4-3.2-25.6-4.8-35.2 0-1.6-1.6-1.6-1.6-3.2-3.2-4.8-9.6-6.4-14.4-1.6-25.6 40-80 64-104 84.8h-1.6c-8 6.4-12.8 8-17.6 8-4.8 0-8-4.8-9.6-9.6-1.6-1.6-3.2-4.8-3.2-6.4-6.4-8-12.8-16-17.6-22.4-89.6-105.6-180.8-128-262.4-113.6 0 0 67.2 147.2 27.2 262.4-8 12.8-14.4 25.6-16 33.6v1.6c128 3.2 236.8-68.8 265.6-99.2 8-8 9.6-11.2 11.2-11.2 1.6 0 4.8 3.2 12.8 8 49.6 24 99.2 70.4 118.4 89.6 4.8 4.8 11.2 3.2 14.4-3.2 17.6-43.2 11.2-126.4 3.2-182.4z" fill="#8BA59B" p-id="20122"></path><path d="M532.8 856c40-115.2-27.2-262.4-27.2-262.4-108.8 20.8-198.4 108.8-233.6 148.8-3.2 3.2-4.8 8-6.4 12.8-1.6 9.6 0 19.2 8 25.6 80 81.6 166.4 110.4 243.2 112v-1.6c1.6-11.2 8-22.4 16-35.2z m-107.2-147.2c17.6 0 32 14.4 32 33.6s-14.4 33.6-32 33.6-32-14.4-32-33.6 14.4-33.6 32-33.6z" fill="#F6BA7C" p-id="20123"></path><path d="M393.6 740.8a33.6 32 90 1 0 64 0 33.6 32 90 1 0-64 0Z" fill="#FFFFFF" p-id="20124"></path></svg>