<?xml version="1.0" standalone="no"?><!DOCTYPE svg PUBLIC "-//W3C//DTD SVG 1.1//EN" "http://www.w3.org/Graphics/SVG/1.1/DTD/svg11.dtd"><svg t="1622550490642" class="icon" viewBox="0 0 1024 1024" version="1.1" xmlns="http://www.w3.org/2000/svg" p-id="5606" xmlns:xlink="http://www.w3.org/1999/xlink" width="100" height="100"><defs><style type="text/css"></style></defs><path d="M1007.999162 63.999227c0-27.200187-20.800264-48.000451-48.000451-48.000452h-719.996455c-27.200187 0-48.000451 20.800264-48.000451 48.000452v478.39989c0 27.200187 20.800264 48.000451 48.000451 48.000451h719.998517c27.200187 0 48.000451-20.800264 48.000452-48.000451V63.999227z" fill="#E1E6E9" p-id="5607"></path><path d="M960.000773 606.398344H240.002256c-35.200606 0-63.999227-28.800683-63.999227-63.999227V63.999227C176.000967 28.800683 204.80165 0 240.002256 0h719.998517c35.200606 0 63.999227 28.800683 63.999227 63.999227v478.39989c0 35.198543-28.800683 63.999227-63.999227 63.999227zM240.002256 31.999613c-17.599272 0-31.999613 14.400342-31.999613 31.999614v478.39989c0 17.599272 14.400342 31.999613 31.999613 31.999613h719.998517c17.599272 0 31.999613-14.400342 31.999614-31.999613V63.999227c0-17.599272-14.400342-31.999613-31.999614-31.999614H240.002256z" fill="#193651" p-id="5608"></path><path d="M923.199671 148.798717c0-27.200187-20.800264-48.000451-48.000451-48.000451H155.200703c-27.200187 0-48.000451 20.800264-48.000452 48.000451v478.399891c0 27.200187 20.800264 48.000451 48.000452 48.000451h719.998517c27.200187 0 48.000451-20.800264 48.000451-48.000451V148.798717z" fill="#FDBF5E" p-id="5609"></path><path d="M875.19922 691.197834H155.200703c-35.200606 0-63.999227-28.800683-63.999227-63.999226V148.798717c0-35.200606 28.800683-63.999227 63.999227-63.999226h719.998517c35.200606 0 63.999227 28.800683 63.999227 63.999226v478.399891c0.002062 35.200606-28.798621 63.999227-63.999227 63.999226zM155.200703 116.799104c-17.599272 0-31.999613 14.400342-31.999614 31.999613v478.399891c0 17.599272 14.400342 31.999613 31.999614 31.999613h719.998517c17.599272 0 31.999613-14.400342 31.999613-31.999613V148.798717c0-17.599272-14.400342-31.999613-31.999613-31.999613H155.200703z" fill="#193651" p-id="5610"></path><path d="M852.800522 227.200348c0-27.200187-22.400761-49.598885-49.598885-49.598885H65.601785c-27.200187 0-49.598885 22.400761-49.598885 49.598885v537.599691h836.797622V227.200348z" fill="#2EA2DB" p-id="5611"></path><path d="M852.800522 780.798814H16.0029c-9.600915 0-16.000838-6.399923-16.000838-16.000838V227.200348c0-36.79904 28.800683-65.599723 65.599723-65.599723H803.199575c36.79904 0 65.599723 28.800683 65.599722 65.599723v537.599691c0 7.998356-7.998356 15.998775-15.998775 15.998775zM32.001676 748.799201h804.798008V227.200348c0-19.199768-14.400342-33.60011-33.600109-33.60011H65.601785c-19.199768 0-33.60011 14.400342-33.600109 33.60011v521.598853z" fill="#193651" p-id="5612"></path><path d="M81.602623 697.597757V260.798395c0-9.600915 8.000419-16.000838 16.000838-16.000838h670.39757c9.600915 0 16.000838 8.000419 16.000838 16.000838v438.399858H81.602623v-1.600496z" fill="#FFFFFF" p-id="5613"></path><path d="M433.600432 470.399471m-175.998904 0a175.998904 175.998904 0 1 0 351.997808 0 175.998904 175.998904 0 1 0-351.997808 0Z" fill="#F16051" p-id="5614"></path><path d="M433.600432 662.399214c-105.599755 0-191.999742-86.399987-191.999742-191.999743s86.399987-191.999742 191.999742-191.999742 191.999742 86.399987 191.999742 191.999742-86.399987 191.999742-191.999742 191.999743z m0-351.999871c-88.000483 0-160.000129 71.999646-160.000129 160.000128s71.999646 160.000129 160.000129 160.000129 160.000129-71.999646 160.000129-160.000129-71.999646-160.000129-160.000129-160.000128zM654.400857 1023.997938H196.801231c-9.600915 0-16.000838-6.399923-16.000838-16.000838s6.399923-16.000838 16.000838-16.000838h455.99913c9.600915 0 16.000838 6.399923 16.000838 16.000838 1.598434 9.600915-6.399923 16.000838-14.400342 16.000838z" fill="#193651" p-id="5615"></path><path d="M246.402179 1007.9971h358.397731l-78.399568-108.798686h-201.598595z" fill="#CFD0D1" p-id="5616"></path><path d="M604.79991 1023.997938h-358.399794c-6.399923 0-11.199349-3.19893-14.400342-8.000419-3.200993-4.799426-1.600496-11.199349 1.600497-16.000838l78.399568-108.800748c3.200993-4.799426 8.000419-6.399923 12.799845-6.399923h201.598595c4.799426 0 9.600915 3.200993 12.799845 6.399923l78.399569 108.800748c3.200993 4.799426 4.799426 11.199349 1.600496 16.000838-1.598434 4.799426-7.998356 8.000419-14.398279 8.000419z m-327.998614-31.999614h295.999l-56.00087-76.799072h-183.999323l-55.998807 76.799072z" fill="#193651" p-id="5617"></path><path d="M16.0029 764.797976v86.399987c0 27.200187 22.400761 49.598885 49.598885 49.598885H803.199575c27.200187 0 49.598885-22.400761 49.598885-49.598885v-86.399987H16.0029z" fill="#FFFFFF" p-id="5618"></path><path d="M803.199575 915.19719H65.601785C28.802746 915.19719 0.002062 886.398569 0.002062 849.597467v-86.399987c0-9.600915 6.399923-16.000838 16.000838-16.000838h836.797622c9.600915 0 16.000838 6.399923 16.000838 16.000838v86.399987c-0.002062 36.801102-30.401179 65.599723-65.601785 65.599723zM32.001676 780.798814v70.399149c0 19.199768 14.400342 33.60011 33.600109 33.60011H803.199575c19.199768 0 33.60011-14.400342 33.600109-33.60011V780.798814H32.001676z" fill="#193651" p-id="5619"></path><path d="M520.000419 817.597854h31.999613v33.600109h-31.999613zM409.601238 817.597854h31.999613v33.600109h-31.999613zM299.202056 817.597854h31.999613v33.600109h-31.999613z" fill="#193651" p-id="5620"></path><path d="M385.602043 388.798911v163.199059l132.79788-81.598499z" fill="#FFFFFF" p-id="5621"></path></svg>