<?xml version="1.0" standalone="no"?><!DOCTYPE svg PUBLIC "-//W3C//DTD SVG 1.1//EN" "http://www.w3.org/Graphics/SVG/1.1/DTD/svg11.dtd"><svg t="1622551097650" class="icon" viewBox="0 0 1024 1024" version="1.1" xmlns="http://www.w3.org/2000/svg" p-id="19537" xmlns:xlink="http://www.w3.org/1999/xlink" width="100" height="100"><defs><style type="text/css"></style></defs><path d="M332.8 281.6V102.4a25.6 25.6 0 0 1 25.6-25.6h460.8A76.8 76.8 0 0 1 896 153.6v716.8a76.8 76.8 0 0 1-76.8 76.8H204.8A76.8 76.8 0 0 1 128 870.4V307.2a25.6 25.6 0 0 1 25.6-25.6h179.2z m51.2-153.6V307.2a25.6 25.6 0 0 1-25.6 25.6H179.2V870.4a25.6 25.6 0 0 0 25.6 25.6h614.4a25.6 25.6 0 0 0 25.6-25.6V153.6a25.6 25.6 0 0 0-25.6-25.6H384z" fill="#333333" p-id="19538"></path><path d="M340.2752 84.2752A25.6 25.6 0 0 1 384 102.4v204.8a25.6 25.6 0 0 1-25.6 25.6H153.6a25.6 25.6 0 0 1-18.1248-43.7248l204.8-204.8zM332.8 164.1984L215.3984 281.6H332.8V164.1984zM590.1312 555.1104L563.2 635.8528 485.0688 401.5104a25.6 25.6 0 0 0-48.5376 0L391.168 537.6H307.2a25.6 25.6 0 1 0 0 51.2h102.4a25.6 25.6 0 0 0 24.2688-17.5104L460.8 490.5472l78.1312 234.3424a25.6 25.6 0 0 0 48.5376 0l45.3632-136.0896H716.8a25.6 25.6 0 1 0 0-51.2h-102.4a25.6 25.6 0 0 0-24.2688 17.5104z" fill="#6B57FE" p-id="19539"></path></svg>